<?xml version="1.0" standalone="no"?><!DOCTYPE svg PUBLIC "-//W3C//DTD SVG 1.1//EN" "http://www.w3.org/Graphics/SVG/1.1/DTD/svg11.dtd"><svg t="1770695106769" class="icon" viewBox="0 0 1024 1024" version="1.1" xmlns="http://www.w3.org/2000/svg" p-id="10409" xmlns:xlink="http://www.w3.org/1999/xlink" width="200" height="200"><path d="M568 138.688a55.872 55.872 0 0 1-18.688 41.728v70.272H736c61.824 0 112 50.112 112 112V736a112 112 0 0 1-112 112h-448a112 112 0 0 1-112-112V362.688c0-61.888 50.176-112 112-112h186.688V180.416a56 56 0 1 1 93.312-41.728zM288 325.312a37.312 37.312 0 0 0-37.312 37.376V736c0 20.608 16.64 37.312 37.312 37.312h448a37.312 37.312 0 0 0 37.312-37.312V362.688a37.312 37.312 0 0 0-37.312-37.376h-448z m-149.312 112H64v224h74.688v-224z m746.624 0H960v224h-74.688v-224zM400 605.312a56 56 0 1 0 0-112 56 56 0 0 0 0 112z m224 0a56 56 0 1 0 0-112 56 56 0 0 0 0 112z" p-id="10410"></path></svg>